#!OML:ASF H:\Pregnant\Project 1\Capture day 1\Session 1\femalepreg.ASF
:FULLY-SPECIFIED
:DEGREES
1723
root -1.73281 14.831 40.1129 190.162 82.1653 533.725
lowerback -13.2838 3.76538 1.22993
upperback -2.52968 5.10728 -2.77775
thorax 5.1245 2.61421 -2.70308
lowerneck -1.51516 16.579 19.1659
upperneck 16.2572 23.496 -9.1894
head 8.65946 11.912 -3.42426
rclavicle 8.49804e-015 1.19271e-015
rhumerus -31.5664 -6.02418 -75.2504
rradius 30.4784
rwrist -5.43145
rhand -21.2556 -14.8244
rfingers 7.12502
rthumb 5.12753 -44.7424
lclavicle 8.49804e-015 1.19271e-015
lhumerus -33.0475 0.499444 68.2188
lradius 25.7303
lwrist 41.8675
lhand -28.974 -5.45227
lfingers 7.12502
lthumb -2.32658 24.5148
rfemur -50.743 21.1598 7.03816
rtibia 40.7376
rfoot -10.0941 -1.34606
rtoes -22.3934
lfemur -20.9031 -22.1538 -21.2754
ltibia 44.1922
lfoot -2.72104 -24.5954
ltoes 1.51213
1724
root -1.64771 14.8445 40.142 191.282 81.7227 534.924
lowerback -13.1531 3.92613 1.794
upperback -2.52956 5.2438 -2.81718
thorax 5.11474 2.69084 -3.04318
lowerneck -1.15099 16.8203 19.4985
upperneck 15.9526 23.9054 -9.47523
head 8.63306 12.1134 -3.51627
rclavicle -4.96962e-016 5.96354e-015
rhumerus -31.41 -5.94398 -75.5589
rradius 30.3343
rwrist -5.44897
rhand -21.0388 -14.8718
rfingers 7.12502
rthumb 5.33685 -44.7846
lclavicle -4.96962e-016 5.96354e-015
lhumerus -33.3831 0.6992 67.8472
lradius 25.8934
lwrist 42.2922
lhand -29.3797 -5.73795
lfingers 7.12502
lthumb -2.7184 24.2245
rfemur -50.0794 20.8025 7.73751
rtibia 40.719
rfoot -10.4414 -1.34406
rtoes -22.1315
lfemur -21.5589 -21.8622 -20.9639
ltibia 45.5115
lfoot -0.460672 -24.8238
ltoes 2.84034
1725
root -1.56398 14.8591 40.17 192.598 81.2475 536.312
lowerback -13.0036 4.1048 2.43551
upperback -2.54498 5.39604 -2.86212
thorax 5.08972 2.77645 -3.4316
lowerneck -0.825363 17.0367 19.8002
upperneck 15.677 24.27 -9.71317
head 8.60854 12.2943 -3.59278
rclavicle -1.03368e-014 -4.77083e-015
rhumerus -31.2912 -5.87395 -75.8658
rradius 30.2239
rwrist -5.49964
rhand -20.7972 -14.9109
rfingers 7.12502
rthumb 5.57013 -44.8177
lclavicle -1.03368e-014 -4.77083e-015
lhumerus -33.7008 0.795414 67.5213
lradius 26.0561
lwrist 42.6864
lhand -29.7334 -6.04657
lfingers 7.12502
lthumb -3.06003 23.9112
rfemur -49.3867 20.4647 8.4574
rtibia 40.6181
rfoot -10.7533 -1.38612
rtoes -21.8761
lfemur -22.3238 -21.5533 -20.5881
ltibia 46.9126
lfoot 1.9666 -24.9161
ltoes 4.46556
1726
root -1.48194 14.8743 40.197 194.073 80.7452 537.844
lowerback -12.8439 4.26933 3.12481
upperback -2.58164 5.52503 -2.88996
thorax 5.04045 2.85065 -3.83504
lowerneck -0.506955 17.2521 20.09
upperneck 15.4307 24.6333 -9.92669
head 8.59224 12.4759 -3.65811
rclavicle 4.3186e-014 7.95139e-016
rhumerus -31.1792 -5.72541 -76.1902
rradius 30.1338
rwrist -5.57757
rhand -20.5279 -14.9428
rfingers 7.12502
rthumb 5.83013 -44.8426
lclavicle 4.3186e-014 7.95139e-016
lhumerus -34.0442 0.885772 67.2142
lradius 26.22
lwrist 43.0362
lhand -29.9537 -6.25019
lfingers 7.12502
lthumb -3.27277 23.7044
rfemur -48.6876 20.1516 9.19275
rtibia 40.4464
rfoot -11.0243 -1.47295
rtoes -21.6091
lfemur -23.1993 -21.2317 -20.1442
ltibia 48.377
lfoot 4.50621 -24.8711
ltoes 6.32985
1727
root -1.4019 14.8896 40.2233 195.649 80.2251 539.456
lowerback -12.6645 4.42853 3.85801
upperback -2.64991 5.64543 -2.9164
thorax 4.95278 2.92014 -4.26639
lowerneck -0.203607 17.4628 20.4009
upperneck 15.2274 24.9878 -10.1088
head 8.59202 12.656 -3.71371
rclavicle 2.94201e-014 1.35174e-014
rhumerus -31.0885 -5.53791 -76.5398
rradius 30.0584
rwrist -5.66254
rhand -20.2527 -14.9511
rfingers 7.12502
rthumb 6.09589 -44.8434
lclavicle 2.94201e-014 1.35174e-014
lhumerus -34.4076 0.946776 66.9122
lradius 26.3787
lwrist 43.3405
lhand -29.9236 -6.19682
lfingers 7.12502
lthumb -3.24371 23.7583
rfemur -48.0023 19.8685 9.93733
rtibia 40.2168
rfoot -11.2509 -1.60218
rtoes -21.3337
lfemur -24.1777 -20.8921 -19.6375
ltibia 49.8754
lfoot 7.06476 -24.7179
ltoes 8.14951
1728
root -1.32371 14.9046 40.2497 197.262 79.6896 541.083
lowerback -12.485 4.56782 4.59309
upperback -2.73771 5.74191 -2.91589
thorax 4.84155 2.97602 -4.6763
lowerneck 0.0915434 17.6779 20.7055
upperneck 15.059 25.352 -10.2804
head 8.60601 12.8412 -3.76051
rclavicle 1.61016e-014 -3.67752e-014
rhumerus -30.9907 -5.25495 -76.8977
rradius 29.9947
rwrist -5.76298
rhand -19.9298 -14.9287
rfingers 7.12502
rthumb 6.40759 -44.8117
lclavicle 1.61016e-014 -3.67752e-014
lhumerus -34.8009 1.05551 66.6298
lradius 26.528
lwrist 43.5754
lhand -29.7294 -5.96585
lfingers 7.12502
lthumb -3.05617 23.992
rfemur -47.3422 19.6131 10.6862
rtibia 39.9438
rfoot -11.4363 -1.76878
rtoes -21.043
lfemur -25.2413 -20.5543 -19.0745
ltibia 51.3754
lfoot 9.55354 -24.4853
ltoes 9.68185
1729
root -1.24743 14.9193 40.2761 198.835 79.1308 542.653
lowerback -12.2993 4.6953 5.32913
upperback -2.84511 5.8271 -2.90488
thorax 4.70546 3.02433 -5.07972
lowerneck 0.379385 17.8851 21.026
upperneck 14.9154 25.7075 -10.4463
head 8.63132 13.0233 -3.80599
rclavicle -3.03147e-015 -8.15017e-015
rhumerus -30.8997 -4.92004 -77.2607
rradius 29.9422
rwrist -5.86532
rhand -19.6194 -14.8944
rfingers 7.12502
rthumb 6.70719 -44.7681
lclavicle -3.03147e-015 -8.15017e-015
lhumerus -35.2108 1.1591 66.3694
lradius 26.6754
lwrist 43.7729
lhand -29.3909 -5.59714
lfingers 7.12502
lthumb -2.72926 24.3651
rfemur -46.7058 19.373 11.4326
rtibia 39.6407
rfoot -11.5869 -1.96774
rtoes -20.7027
lfemur -26.3673 -20.2251 -18.4707
ltibia 52.8453
lfoot 11.8254 -24.2374
ltoes 10.3653
1730
root -1.17263 14.9336 40.3031 200.313 78.5418 544.116
lowerback -12.114 4.80936 6.04623
upperback -2.95913 5.90095 -2.88355
thorax 4.55945 3.06494 -5.46462
lowerneck 0.630076 18.0892 21.3561
upperneck 14.8039 26.0543 -10.6022
head 8.67393 13.2006 -3.84487
rclavicle -1.0056e-013 -2.94201e-014
rhumerus -30.7993 -4.56683 -77.6204
rradius 29.893
rwrist -5.93938
rhand -19.3186 -14.842
rfingers 7.12502
rthumb 6.99764 -44.7063
lclavicle -1.0056e-013 -2.94201e-014
lhumerus -35.6103 1.26484 66.1332
lradius 26.8076
lwrist 43.9321
lhand -28.9336 -5.07643
lfingers 7.12502
lthumb -2.2876 24.891
rfemur -46.0878 19.1374 12.1778
rtibia 39.3201
rfoot -11.7091 -2.20401
rtoes -20.3636
lfemur -27.5302 -19.9354 -17.8335
ltibia 54.2603
lfoot 13.7486 -23.9816
ltoes 9.85035
1731
root -1.0992 14.9475 40.3307 201.632 77.9161 545.424
lowerback -11.9345 4.90194 6.72006
upperback -3.06317 5.95375 -2.83745
thorax 4.41809 3.09312 -5.80255
lowerneck 0.848439 18.2901 21.6643
upperneck 14.7075 26.3946 -10.7615
head 8.72511 13.3721 -3.87877
rclavicle 2.2736e-014 5.36719e-015
rhumerus -30.6749 -4.15559 -77.9599
rradius 29.8524
rwrist -6.01522
rhand -19.044 -14.7826
rfingers 7.12502
rthumb 7.2627 -44.6379
lclavicle 2.2736e-014 5.36719e-015
lhumerus -35.9947 1.42322 65.9359
lradius 26.9191
lwrist 44.035
lhand -28.5121 -4.66053
lfingers 7.12502
lthumb -1.88049 25.3109
rfemur -45.4719 18.892 12.9213
rtibia 38.9911
rfoot -11.8128 -2.47374
rtoes -20.0355
lfemur -28.6991 -19.686 -17.1822
ltibia 55.6038
lfoot 15.1752 -23.7873
ltoes 7.78952
1732
root -1.02771 14.9611 40.3581 202.735 77.2585 546.514
lowerback -11.7479 4.98266 7.36317
upperback -3.16782 5.99918 -2.79321
thorax 4.26865 3.11582 -6.12754
lowerneck 1.03075 18.4818 21.9608
upperneck 14.6282 26.7142 -10.9037
head 8.78206 13.5326 -3.90492
rclavicle 3.29734e-014 1.39149e-014
rhumerus -30.5418 -3.76502 -78.2816
rradius 29.8085
rwrist -6.04135
rhand -18.8001 -14.7124
rfingers 7.12502
rthumb 7.49813 -44.5595
lclavicle 3.29734e-014 1.39149e-014
lhumerus -36.3463 1.57174 65.7715
lradius 26.9981
lwrist 44.1136
lhand -28.1448 -4.32829
lfingers 7.12502
lthumb -1.5258 25.646
rfemur -44.8663 18.6201 13.6484
rtibia 38.662
rfoot -11.9038 -2.76256
rtoes -19.7291
lfemur -29.8663 -19.4863 -16.5372
ltibia 56.8685
lfoot 16.0283 -23.6753
ltoes 4.3558
1733
root -0.957991 14.9741 40.385 203.648 76.584 547.416
lowerback -11.558 5.05612 7.97693
upperback -3.26855 6.04265 -2.75378
thorax 4.11916 3.1361 -6.442
lowerneck 1.17431 18.6637 22.2529
upperneck 14.5633 27.012 -11.0355
head 8.84593 13.6811 -3.92611
rclavicle -4.75592e-014 -2.18663e-015
rhumerus -30.3945 -3.4019 -78.5843
rradius 29.7591
rwrist -6.02182
rhand -18.5904 -14.6353
rfingers 7.12502
rthumb 7.70051 -44.4751
lclavicle -4.75592e-014 -2.18663e-015
lhumerus -36.6534 1.70886 65.6418
lradius 27.0316
lwrist 44.1697
lhand -27.8352 -4.08112
lfingers 7.12502
lthumb -1.22676 25.8951
rfemur -44.2825 18.4159 14.3151
rtibia 38.3394
rfoot -11.9638 -3.15681
rtoes -19.4899
lfemur -31.0183 -19.3182 -15.914
ltibia 58.0533
lfoot 16.2641 -23.6639
ltoes -0.0782924
1734
root -0.890098 14.9865 40.4116 204.41 75.9148 548.159
lowerback -11.3748 5.11895 8.5373
upperback -3.36637 6.08057 -2.70142
thorax 3.96904 3.1519 -6.71326
lowerneck 1.29501 18.8408 22.5096
upperneck 14.5114 27.2995 -11.1572
head 8.9109 13.8229 -3.93914
rclavicle -2.04997e-014 1.43125e-014
rhumerus -30.2267 -3.03597 -78.8503
rradius 29.7042
rwrist -5.9804
rhand -18.407 -14.5543
rfingers 7.12502
rthumb 7.87755 -44.3875
lclavicle -2.04997e-014 1.43125e-014
lhumerus -36.9396 1.87235 65.5606
lradius 27.0215
lwrist 44.1954
lhand -27.5739 -3.90731
lfingers 7.12502
lthumb -0.974346 26.0702
rfemur -43.737 18.2881 14.9173
rtibia 38.0305
rfoot -11.9958 -3.63884
rtoes -19.2907
lfemur -32.1578 -19.1384 -15.3236
ltibia 59.1627
lfoot 15.926 -23.7514
ltoes -4.65532
1735
root -0.823984 14.9979 40.4376 205.034 75.2609 548.755
lowerback -11.2003 5.18092 9.05872
upperback -3.45854 6.12422 -2.65461
thorax 3.82769 3.16972 -6.96679
lowerneck 1.38476 19.0085 22.7514
upperneck 14.4608 27.5665 -11.2758
head 8.97637 13.9528 -3.94975
rclavicle -1.23619e-014 1.37161e-014
rhumerus -30.0407 -2.68803 -79.0986
rradius 29.6472
rwrist -5.9153
rhand -18.2691 -14.4694
rfingers 7.12502
rthumb 8.01064 -44.2975
lclavicle -1.23619e-014 1.37161e-014
lhumerus -37.1769 2.00948 65.5236
lradius 26.9643
lwrist 44.2179
lhand -27.3606 -3.77545
lfingers 7.12502
lthumb -0.768343 26.2029
rfemur -43.2371 18.2464 15.4462
rtibia 37.7412
rfoot -12.0017 -4.20729
rtoes -19.1334
lfemur -33.2847 -18.9432 -14.7841
ltibia 60.1995
lfoot 15.0945 -23.8877
ltoes -8.69188
